<?xml version="1.0" encoding="iso-8859-1"?>
<!-- Uploaded to: SVG Repo, www.svgrepo.com, Generator: SVG Repo Mixer Tools -->
<svg height="800px" width="800px" version="1.1" id="Layer_1" xmlns="http://www.w3.org/2000/svg" xmlns:xlink="http://www.w3.org/1999/xlink" 
	 viewBox="0 0 504.131 504.131" xml:space="preserve">
<path style="fill:#769392;" d="M333.249,373.072c-3.048,0-6.049-1.182-8.287-3.434l-82.779-82.763l16.573-16.581l62.787,62.771
	V191.398h23.434v169.952c0,4.742-2.859,9.027-7.239,10.831C336.274,372.796,334.753,373.072,333.249,373.072z"/>
<path style="fill:#148DE0;" d="M319.165,193.935c-2.095-5.049-7.026-8.342-12.485-8.342H25.891c-5.459,0-10.382,3.293-12.477,8.342
	c-2.111,5.049-0.937,10.862,2.922,14.722l140.398,140.383c2.639,2.631,6.089,3.954,9.555,3.954c3.45,0,6.916-1.323,9.555-3.954
	l140.383-140.383C320.095,204.797,321.252,198.984,319.165,193.935z"/>
<path style="fill:#1F5D9B;" d="M71.971,193.935c-2.095,5.049-0.929,10.862,2.93,14.722l120.667,120.659l120.659-120.659
	c3.86-3.86,5.025-9.681,2.93-14.722c-2.095-5.041-7.026-8.342-12.485-8.342H84.456C78.99,185.601,74.059,188.886,71.971,193.935z"/>
<path style="fill:#769392;" d="M332.209,194.108c0,5.293-4.285,9.586-9.602,9.586H9.602c-5.301,0-9.602-4.293-9.602-9.586l0,0
	c0-5.309,4.301-9.602,9.602-9.602h313.005C327.924,184.506,332.209,188.799,332.209,194.108L332.209,194.108z"/>
<path style="fill:#566D6C;" d="M332.209,194.108c0-5.309-4.285-9.602-9.602-9.602H62.165c-5.309,0-9.602,4.293-9.602,9.602
	c0,5.293,4.293,9.586,9.602,9.586h260.443C327.924,203.686,332.209,199.393,332.209,194.108z"/>
<path style="fill:#8CAFAF;" d="M133.254,407.47c-4.608,0-9.216-1.757-12.745-5.278c-7.034-7.034-7.034-18.448,0-25.474
	l188.416-188.416V47.117c0-9.956,8.074-18.015,18.022-18.015h85.583c9.949,0,18.022,8.058,18.022,18.015
	s-8.074,18.015-18.022,18.015h-67.56v130.631c0,4.766-1.906,9.358-5.285,12.737L145.983,402.201
	C142.478,405.722,137.862,407.47,133.254,407.47z"/>
<path style="fill:#769392;" d="M412.53,65.139c2.143,0,4.175-0.449,6.081-1.126c-1.906-0.693-3.938-1.126-6.081-1.126h-85.583
	c-9.949,0-18.022,8.058-18.022,18.015v107.402v33.784L125.424,405.596c2.465,1.197,5.136,1.875,7.83,1.875
	c4.608,0,9.224-1.757,12.729-5.278l193.701-193.694c3.379-3.387,5.285-7.971,5.285-12.737V98.923V65.139H412.53z"/>
<path style="fill:#FFC41F;" d="M131.411,392.733c15.856,15.833,15.84,41.519,0,57.352c-15.817,15.817-41.511,15.848-57.344,0
	c-15.856-15.848-15.817-41.519,0-57.352C89.899,376.908,115.594,376.908,131.411,392.733z"/>
<path style="fill:#FFA522;" d="M74.059,392.733c15.84-15.833,41.527-15.833,57.344,0c15.856,15.833,15.84,41.519,0,57.352"/>
<path style="fill:#1A3D5B;" d="M144.92,463.585c-23.261,23.261-61.093,23.261-84.354,0s-23.261-61.078,0-84.338
	c23.261-23.276,61.093-23.276,84.354,0C168.172,402.508,168.172,440.317,144.92,463.585z M87.568,406.21
	c-8.381,8.381-8.381,22,0,30.366c8.365,8.381,21.984,8.381,30.358,0c8.365-8.365,8.365-21.984,0-30.366
	C109.552,397.86,95.941,397.86,87.568,406.21z"/>
<path style="fill:#0D273A;" d="M504.123,61.382c0,4.986-4.025,9.019-9.011,9.019h-94.586c-4.986,0-9.019-4.033-9.019-9.019V32.103
	c0-4.97,4.033-9.003,9.019-9.003h94.594c4.986,0,9.011,4.033,9.011,9.003v29.279H504.123z"/>
<path style="fill:#1A3D5B;" d="M495.112,23.108h-94.586c-4.986,0-9.019,4.033-9.019,9.003v9.011c0,4.986,4.033,9.003,9.019,9.003
	h94.594c4.986,0,9.011-4.017,9.011-9.003v-9.019C504.123,27.133,500.098,23.108,495.112,23.108z"/>
</svg>